<?xml version="1.0" ?><!-- Uploaded to: SVG Repo, www.svgrepo.com, Generator: SVG Repo Mixer Tools -->
<svg width="800px" height="800px" viewBox="0 0 512 512" enable-background="new 0 0 512 512" id="flat" version="1.1" xml:space="preserve" xmlns="http://www.w3.org/2000/svg" xmlns:xlink="http://www.w3.org/1999/xlink"><path d="M455.452,237.117C409.701,201.924,396.36,138.673,424,88c-50.673,27.64-113.924,14.299-149.117-31.452  L256,32l-18.883,24.548C201.924,102.299,138.673,115.64,88,88c27.64,50.673,14.299,113.924-31.452,149.117L32,256l24.548,18.883  C102.299,310.076,115.64,373.327,88,424h0h0c50.673-27.64,113.924-14.299,149.117,31.452L256,480l18.883-24.548  C310.076,409.701,373.327,396.36,424,424l0,0l0,0c-27.64-50.673-14.299-113.924,31.452-149.117L480,256L455.452,237.117z" fill="#A1AAD6"/><path d="M398.466,242.512C365.787,217.374,356.257,172.195,376,136c-36.195,19.743-81.374,10.213-106.512-22.466  L256,96l-13.488,17.534C217.374,146.213,172.195,155.743,136,136c19.743,36.195,10.213,81.374-22.466,106.512L96,256l17.534,13.488  C146.213,294.626,155.743,339.805,136,376h0h0c36.195-19.743,81.374-10.213,106.512,22.466L256,416l13.488-17.534  C294.626,365.787,339.805,356.257,376,376l0,0l0,0c-19.743-36.195-10.213-81.374,22.466-106.512L416,256L398.466,242.512z" fill="#8B93B9"/><path d="M341.48,247.907C321.872,232.825,316.154,205.717,328,184c-21.717,11.846-48.825,6.128-63.907-13.48L256,160  l-8.093,10.52C232.825,190.128,205.717,195.846,184,184c11.846,21.717,6.128,48.825-13.48,63.907L160,256l10.52,8.093  c19.608,15.083,25.325,42.19,13.48,63.907h0h0c21.717-11.846,48.825-6.128,63.907,13.48L256,352l8.093-10.52  c15.083-19.608,42.19-25.325,63.907-13.48l0,0l0,0c-11.846-21.717-6.128-48.825,13.48-63.907L352,256L341.48,247.907z" fill="#707795"/><path d="M275.314,264H504c4.418,0,8-3.582,8-8s-3.582-8-8-8H275.314L509.657,13.657  c3.125-3.125,3.125-8.189,0-11.314c-3.124-3.123-8.189-3.123-11.313,0L264,236.686V8c0-4.418-3.582-8-8-8s-8,3.582-8,8v228.686  L13.657,2.343c-3.124-3.123-8.189-3.123-11.313,0c-3.125,3.125-3.125,8.189,0,11.314L236.686,248H8c-4.418,0-8,3.582-8,8  s3.582,8,8,8h228.686L2.343,498.343c-3.125,3.125-3.125,8.189,0,11.314C3.905,511.219,5.953,512,8,512s4.095-0.781,5.657-2.343  L248,275.314V504c0,4.418,3.582,8,8,8s8-3.582,8-8V275.314l234.343,234.343c1.562,1.562,3.609,2.343,5.657,2.343  s4.095-0.781,5.657-2.343c3.125-3.125,3.125-8.189,0-11.314L275.314,264z" fill="#3F4254"/></svg>